<svg xmlns="http://www.w3.org/2000/svg" width="54" height="54" viewBox="0 0 54 54"><path d="M39.8559 0.00961058C38.9152 -0.0637374 37.9838 0.290457 37.2176 1.01298C36.4513 1.73551 35.8966 2.78258 35.6461 3.97915C35.366 5.35994 35.5117 6.83058 36.0514 8.07046C36.5911 9.31034 37.4811 10.2189 38.5274 10.598C39.5753 10.9656 40.691 10.7731 41.6315 10.0623C42.5721 9.3515 43.2614 8.18006 43.5493 6.80303C43.705 6.03129 43.7292 5.22374 43.6202 4.43823C43.5112 3.65272 43.2716 2.90869 42.9186 2.25944C42.5656 1.6102 42.108 1.07181 41.5785 0.682855C41.049 0.293895 40.4608 0.0639904 39.8559 0.00961058ZM18.28 0.00961058C17.3387 -0.0643366 16.4067 0.290166 15.6403 1.01369C14.8738 1.73722 14.3195 2.78579 14.0702 3.98363C13.7904 5.36268 13.9363 6.83156 14.4762 8.06928C15.0161 9.307 15.9061 10.2129 16.9515 10.5891C17.9985 10.9595 19.1143 10.7692 20.0552 10.0599C20.9961 9.35053 21.6857 8.17971 21.9734 6.80303C22.1286 6.03124 22.1523 5.2238 22.0428 4.43854C21.9333 3.65328 21.6933 2.90963 21.34 2.26085C20.9867 1.61206 20.5289 1.0742 19.9993 0.685777C19.4697 0.297353 18.8814 0.0679809 18.2767 0.0140866L18.28 0.00961058ZM39.737 2.37254C40.0784 2.39678 40.4114 2.52173 40.7113 2.73815C41.0112 2.95457 41.2703 3.25694 41.4696 3.62294C41.6689 3.98894 41.8032 4.40921 41.8626 4.85274C41.9221 5.29626 41.9051 5.75171 41.813 6.18545C41.7355 6.56928 41.601 6.92906 41.4173 7.24404C41.2336 7.55902 41.0043 7.82295 40.7427 8.02059C40.4811 8.21823 40.1924 8.34567 39.8933 8.39555C39.5941 8.44543 39.2904 8.41676 38.9997 8.31119C38.7072 8.20959 38.433 8.03247 38.1929 7.79011C37.9529 7.54775 37.7518 7.24499 37.6013 6.8994C37.4508 6.55382 37.354 6.1723 37.3164 5.77701C37.2788 5.38172 37.3012 4.98053 37.3823 4.59674C37.5182 3.92398 37.8274 3.3343 38.2569 2.92859C38.6864 2.52287 39.2096 2.32631 39.737 2.37254ZM18.1611 2.37254C18.5026 2.39678 18.8355 2.52173 19.1354 2.73815C19.4353 2.95457 19.6944 3.25694 19.8937 3.62294C20.093 3.98894 20.2273 4.40921 20.2868 4.85274C20.3462 5.29626 20.3293 5.75171 20.2372 6.18545C20.1596 6.56976 20.025 6.93001 19.8411 7.24534C19.6571 7.56067 19.4275 7.82483 19.1656 8.02252C18.9036 8.22022 18.6145 8.34752 18.315 8.39707C18.0154 8.44662 17.7114 8.41743 17.4204 8.31119C17.1286 8.20907 16.8551 8.03175 16.6157 7.78949C16.3763 7.54723 16.1757 7.24483 16.0256 6.8998C15.8755 6.55478 15.7789 6.17397 15.7413 5.77942C15.7036 5.38487 15.7258 4.98441 15.8065 4.60121C15.9423 3.92806 16.2513 3.33787 16.6807 2.9314C17.1102 2.52494 17.6334 2.32741 18.1611 2.37254ZM15.3002 12.4955C15.1332 12.5028 14.971 12.5711 14.8318 12.6928C14.6926 12.8145 14.5818 12.9848 14.5119 13.1847L9.36089 27.8859H7.23049C5.25298 27.8859 3.64244 30.0206 3.64244 32.6252C3.64244 35.2298 5.25298 37.36 7.23049 37.36H16.3365L15.2934 39.6558C14.7139 39.4825 14.1072 39.5657 13.5673 39.8926C13.0273 40.2195 12.5843 40.7717 12.3068 41.4638L9.40167 48.8122C9.07444 49.6481 9.01079 50.6203 9.22454 51.5177C9.43829 52.4151 9.91218 53.1652 10.5433 53.6052C11.1791 54.0348 11.9177 54.1175 12.5994 53.8352C13.2811 53.553 13.851 52.9285 14.1857 52.097L17.0908 44.7442C17.3264 44.1386 17.4253 43.4568 17.3759 42.7796C17.3265 42.1023 17.1309 41.4578 16.8122 40.9223L18.4262 37.36H39.5943L38.6429 39.6513C38.0665 39.4859 37.4649 39.5735 36.9299 39.9008C36.3949 40.2281 35.9559 40.777 35.6801 41.4638L32.775 48.8122C32.448 49.6487 32.3848 50.6213 32.5992 51.5188C32.8137 52.4162 33.2883 53.166 33.92 53.6052C34.5554 54.0334 35.2933 54.1153 35.9741 53.8331C36.655 53.5509 37.2243 52.9273 37.559 52.097L40.4675 44.7442C40.7045 44.1332 40.8027 43.4451 40.7503 42.7624C40.6978 42.0798 40.497 41.4316 40.1719 40.8955L41.6431 37.36H50.389C52.3665 37.36 53.9839 35.2253 53.9839 32.6252C53.9839 30.0251 52.3665 27.8814 50.389 27.8814H45.588L47.9052 22.3142C48.9348 22.1352 49.6653 21.9428 49.6653 21.9428C50.953 21.7369 50.5589 19.1592 49.3119 19.6246L48.9925 19.6962L50.2735 16.6172C50.3879 16.3425 50.4148 16.0191 50.3482 15.7182C50.2816 15.4173 50.127 15.1636 49.9184 15.0129C49.7098 14.8621 49.4643 14.8267 49.2358 14.9144C49.0074 15.0021 48.8148 15.2058 48.7003 15.4805L46.7806 20.099L46.2879 20.1661C44.6264 20.3451 42.6523 20.2556 41.7791 19.7141C41.0655 19.2711 39.9171 17.6108 39.0948 16.0578C38.2692 14.5094 37.6915 13.1131 37.6915 13.1131C37.6112 12.9217 37.4922 12.7632 37.3477 12.6553C37.2033 12.5474 37.039 12.4942 36.873 12.5016C36.707 12.509 36.5458 12.5767 36.4072 12.6973C36.2687 12.8179 36.1581 12.9866 36.0878 13.1847L30.93 27.8859H22.7073L25.147 22.4888C26.7813 22.2874 28.0894 21.9428 28.0894 21.9428C29.3636 21.719 28.9728 19.1681 27.7293 19.6246C27.7293 19.6246 27.1414 19.7723 26.3022 19.9245L27.7836 16.6575C27.8445 16.5238 27.8848 16.3756 27.9023 16.2214C27.9197 16.0672 27.9139 15.91 27.8852 15.7587C27.8565 15.6074 27.8054 15.4651 27.7349 15.3398C27.6645 15.2145 27.5759 15.1088 27.4744 15.0285C27.3729 14.9483 27.2604 14.8952 27.1433 14.8723C27.0262 14.8493 26.9068 14.857 26.792 14.8948C26.6771 14.9326 26.5691 14.9998 26.474 15.0927C26.3788 15.1855 26.2985 15.3021 26.2376 15.4358L24.0834 20.2064C22.5748 20.3048 20.9677 20.1885 20.1998 19.7141C19.4863 19.2711 18.3378 17.6108 17.5122 16.0578C17.0084 15.1095 16.5434 14.1266 16.1191 13.1131C16.0396 12.9212 15.9213 12.7619 15.7774 12.6529C15.6335 12.5439 15.4661 12.4895 15.3002 12.4955ZM15.4463 16.1652C15.6909 16.6889 15.6909 16.7605 16.0443 17.4183C16.9345 19.0965 18.0388 20.9896 19.4421 21.8533C20.4818 22.4932 21.739 22.6454 22.986 22.6365L20.6143 27.8859H11.3384L15.4463 16.1652ZM37.0222 16.1652C37.2668 16.6889 37.2668 16.7605 37.6202 17.4183C38.5104 19.0965 39.6113 20.9896 41.018 21.8533C42.3873 22.7036 44.1405 22.7215 45.7477 22.5828L43.5391 27.8859H32.9143L37.0222 16.1652ZM7.23049 30.2533H19.5474L17.4068 34.9926H7.23049C6.99358 34.9969 6.75845 34.9383 6.53907 34.8205C6.31969 34.7026 6.12054 34.5278 5.95349 34.3065C5.78643 34.0853 5.65487 33.822 5.56663 33.5324C5.47839 33.2428 5.43528 32.9327 5.43986 32.6207C5.43986 31.2916 6.22135 30.2533 7.23049 30.2533ZM21.6371 30.2533H42.5538L40.583 34.9926H19.4931L21.6371 30.2533ZM44.6026 30.2533H50.389C51.3982 30.2533 52.1864 31.2916 52.1864 32.6252C52.1864 33.9543 51.3982 34.9926 50.3856 34.9926H42.6285L44.6026 30.2533ZM24.8717 39.7006C23.9339 39.7543 22.8161 40.1481 21.2701 41.0073C20.1047 41.5891 20.842 43.8849 21.97 43.1913C23.4107 42.3902 24.3451 42.1082 24.9499 42.0724C25.3948 42.0138 25.8416 42.1558 26.2173 42.4752C26.9817 43.0525 28.137 44.4667 30.6106 44.4667C31.8372 44.5025 31.8372 42.0635 30.6106 42.0948C28.5923 42.0948 28.2287 41.2624 27.1143 40.4166C26.4345 39.8992 25.6559 39.6506 24.8717 39.7006ZM47.348 39.7006C46.4102 39.7543 45.2924 40.1481 43.7464 41.0073C42.6965 41.6473 43.359 43.7238 44.4395 43.1913C45.8802 42.3902 46.8214 42.1082 47.4296 42.0724C47.8744 42.0145 48.3211 42.1565 48.6969 42.4752C49.4614 43.0525 50.6065 44.4667 53.0801 44.4667C54.3067 44.5025 54.3067 42.0635 53.0801 42.0948C51.0618 42.0948 50.705 41.2624 49.5905 40.4166C48.9108 39.8992 48.1322 39.6506 47.348 39.7006ZM3.46915 40.0944C2.68766 40.0944 1.79405 40.3718 0.608226 40.9984C-0.468868 41.607 0.180107 43.7372 1.27759 43.2002C2.34109 42.6408 3.01385 42.4663 3.46915 42.4663C3.92445 42.4663 4.18608 42.6005 4.58362 42.8601C5.3753 43.3792 6.6019 44.4667 9.02791 44.4667C10.2545 44.5025 10.2545 42.0635 9.02791 42.0948C6.96206 42.0948 6.39464 41.4056 5.38889 40.7433C4.79721 40.3292 4.13912 40.1067 3.46915 40.0944ZM14.7634 41.9158C14.8846 41.9318 15.0024 41.979 15.1099 42.0545C15.5652 42.3678 15.7317 43.0525 15.4973 43.6522L12.5888 51.0006C12.536 51.1413 12.4622 51.2665 12.3718 51.3687C12.2813 51.4709 12.1761 51.548 12.0625 51.5952C11.9489 51.6425 11.8291 51.6589 11.7105 51.6436C11.5919 51.6284 11.4769 51.5816 11.3724 51.5063C11.266 51.4361 11.1716 51.3382 11.0948 51.2186C11.018 51.099 10.9604 50.9602 10.9254 50.8104C10.8905 50.6607 10.879 50.5032 10.8916 50.3474C10.9041 50.1916 10.9406 50.0408 10.9986 49.9041L13.9003 42.5558C14.0804 42.1082 14.4134 41.8755 14.7634 41.9158ZM38.14 41.9158C38.2613 41.9318 38.3791 41.979 38.4866 42.0545C38.9419 42.3678 39.1084 43.0525 38.8706 43.6522L35.9655 51.0006C35.9127 51.1413 35.8389 51.2665 35.7485 51.3687C35.658 51.4709 35.5528 51.548 35.4392 51.5952C35.3255 51.6425 35.2058 51.6589 35.0872 51.6436C34.9686 51.6284 34.8536 51.5816 34.7491 51.5063C34.6424 51.4365 34.5477 51.3389 34.4705 51.2195C34.3933 51.1001 34.3354 50.9613 34.3001 50.8115C34.2649 50.6617 34.253 50.5041 34.2654 50.3481C34.2777 50.1922 34.314 50.0411 34.3719 49.9041L37.277 42.5602C37.4537 42.1082 37.7901 41.8755 38.14 41.9158ZM23.0709 45.6213C22.1365 45.675 21.0187 46.0644 19.4693 46.9191C18.3378 47.5233 19.0547 49.7609 20.1726 49.1075C21.6099 48.3109 22.5443 48.0245 23.1525 47.9887C23.5973 47.9308 24.044 48.0727 24.4198 48.3915C25.1843 48.9688 26.3362 50.383 28.8131 50.383C29.9854 50.3472 29.9854 48.0514 28.8131 48.0156C26.7915 48.0156 26.4279 47.1787 25.3134 46.3373C24.6338 45.8195 23.8552 45.5709 23.0709 45.6213ZM45.5506 45.6213C44.6128 45.675 43.4949 46.0644 41.9489 46.9191C40.8413 47.5322 41.5378 49.7206 42.6421 49.1075C44.0827 48.3109 45.0205 48.0245 45.6321 47.9887C46.0759 47.9311 46.5214 48.0731 46.8961 48.3915C47.6606 48.9688 48.8091 50.383 51.2826 50.383C52.4549 50.3472 52.4549 48.0514 51.2826 48.0156C49.2644 48.0156 48.9042 47.1787 47.7931 46.3373C47.1133 45.82 46.3348 45.5714 45.5506 45.6213ZM3.06482 46.0241C2.3309 46.0241 1.52223 46.3105 0.540271 46.9549C-0.597984 47.6307 0.25146 49.8683 1.34554 49.0717C2.16101 48.5347 2.70126 48.3915 3.06482 48.3915C3.42838 48.3915 3.65943 48.5078 3.98222 48.7495C4.621 49.2328 5.58257 50.383 7.23049 50.383C8.40272 50.3472 8.40272 48.0514 7.23049 48.0156C6.18397 48.0156 5.80342 47.398 4.86904 46.6954C4.32297 46.2663 3.7006 46.0348 3.06482 46.0241Z"></path></svg>