<svg width="161" height="68" viewBox="0 0 161 68" fill="none" xmlns="http://www.w3.org/2000/svg">
<g clip-path="url(#clip0_459_2)">
<path d="M75.7471 4.6864H70.7246V14.7313H70.7129V19.0151H70.7246V38.7024C70.7246 40.6215 70.7911 42.138 70.9239 43.2559C71.0568 44.3737 71.3813 45.4759 71.8933 46.5703C73.0307 48.8255 74.9615 50.2795 77.6857 50.9401C80.41 51.6006 83.4547 51.5811 86.8278 50.8893V46.5039C84.0371 46.9494 81.8092 47.0081 80.1481 46.6719C78.487 46.3358 77.2636 45.4564 76.4819 44.0259C76.1262 43.4005 75.9073 42.7048 75.8292 41.9348C75.751 41.1648 75.7236 40.0548 75.7471 38.6047V19.019H86.8278V14.7353C86.8278 14.7353 79.5004 14.8504 75.7471 14.8504C74.8732 14.8504 74.8456 14.8504 74.4439 14.8504C74.0918 14.8504 73.4898 14.8981 73.4898 14.755C73.4898 14.0872 75.7471 14.5642 75.7471 13.7055C75.7471 12.8469 75.7471 4.6864 75.7471 4.6864Z" fill="#1F222A"/>
<path d="M121.015 24.2875C120.859 23.0485 120.57 21.9267 120.143 20.9222C119.182 18.6006 117.556 16.8222 115.254 15.5832C112.956 14.3442 110.142 13.7266 106.815 13.7266C102.84 13.7266 99.6002 14.6139 97.0909 16.3883C94.5816 18.1628 92.901 20.6799 92.0528 23.9396L96.9424 25.378C97.5912 23.0133 98.756 21.2662 100.441 20.1366C102.125 19.011 104.216 18.4442 106.718 18.4442C109.082 18.4442 110.974 18.8195 112.393 19.566C113.812 20.3125 114.824 21.4538 115.438 22.982C115.981 24.3344 116.262 26.019 116.294 28.0436C115.832 28.1061 115.363 28.1648 114.886 28.2234C111.115 28.7159 108.133 29.1224 105.948 29.4468C103.759 29.7712 101.73 30.1659 99.8543 30.635C96.9737 31.3932 94.7263 32.6322 93.1081 34.352C91.49 36.0717 90.6809 38.3465 90.6809 41.1802C90.6809 43.1462 91.1499 44.9402 92.088 46.5701C93.026 48.2 94.4253 49.4937 96.2897 50.4552C98.154 51.4128 100.401 51.8935 103.036 51.8935C105.424 51.8935 107.593 51.5378 109.547 50.8226C111.502 50.1073 113.19 49.0442 114.621 47.6254C115.43 46.8241 116.141 45.9174 116.763 44.909L117.562 43.4566C118.664 43.7108 116.763 45.0942 116.763 48.1315C116.763 51.1688 116.763 50.889 116.763 50.889H121.25V28.4579C121.25 26.9179 121.171 25.5265 121.015 24.2914V24.2875ZM116.161 35.3526C116.094 36.3571 115.961 37.2951 115.758 38.1667C115.422 39.9959 114.73 41.6219 113.683 43.0368C112.635 44.4556 111.248 45.5578 109.532 46.3512C107.812 47.1446 105.85 47.5394 103.638 47.5394C101.809 47.5394 100.3 47.2384 99.1194 46.6365C97.9352 46.0346 97.0714 45.2529 96.5242 44.2914C95.977 43.3338 95.7034 42.2941 95.7034 41.1763C95.7034 39.3901 96.2818 37.9908 97.4427 36.9746C98.6035 35.9584 100.089 35.1962 101.895 34.6803C103.614 34.2113 105.561 33.8204 107.738 33.5077C109.915 33.1951 112.62 32.8511 115.856 32.4681L116.254 32.4173C116.247 33.5117 116.215 34.4966 116.157 35.3487L116.161 35.3526Z" fill="#1F222A"/>
<path d="M158.684 23.0171C157.402 20.1287 155.558 17.8578 153.162 16.2045C150.762 14.5512 147.944 13.7265 144.707 13.7265C141.471 13.7265 138.575 14.5434 136.218 16.1693C132.751 18.6186 132.737 20.5745 132.117 20.5745C131.497 20.5745 132.759 19.0479 132.759 17.8553C132.751 17.2352 132.751 14.731 132.751 14.731H128.233V67.2227H133.287V49.1489C133.287 46.716 132.092 46.0005 132.689 45.8097C133.287 45.6189 134.014 47.8555 136.183 49.3998C138.516 51.0609 141.299 51.8934 144.535 51.8934C147.772 51.8934 150.699 51.0687 153.122 49.4154C155.546 47.7621 157.398 45.4873 158.68 42.5872C159.962 39.687 160.607 36.4156 160.607 32.7767C160.607 29.1379 159.966 25.9094 158.68 23.0171H158.684ZM153.982 40.2108C153.134 42.3996 151.868 44.1154 150.183 45.3661C148.499 46.6169 146.439 47.2422 144.008 47.2422C141.577 47.2422 139.482 46.6286 137.797 45.4013C136.113 44.174 134.85 42.4699 134.014 40.2968C133.177 38.1197 132.759 35.6143 132.759 32.7806C132.759 29.9469 133.173 27.3908 133.998 25.2489C134.823 23.107 136.073 21.4263 137.746 20.2108C139.419 18.9952 141.475 18.3855 143.906 18.3855C146.337 18.3855 148.503 19.003 150.199 20.242C151.895 21.481 153.162 23.1891 153.998 25.3661C154.834 27.5432 155.253 30.0134 155.253 32.7806C155.253 35.5479 154.827 38.0259 153.982 40.2147V40.2108Z" fill="#1F222A"/>
<path d="M27.7194 4.68656C40.6489 4.68656 51.1707 15.2083 51.1707 28.1378C51.1707 41.0672 40.6489 51.589 27.7194 51.589C14.79 51.589 4.26816 41.0672 4.26816 28.1378C4.26816 15.2083 14.79 4.68656 27.7194 4.68656ZM27.7194 0.778015C12.609 0.778015 0.359619 13.0274 0.359619 28.1378C0.359619 43.2482 12.609 55.4976 27.7194 55.4976C42.8298 55.4976 55.0792 43.2482 55.0792 28.1378C55.0792 13.0274 42.8298 0.778015 27.7194 0.778015Z" fill="#1F222A"/>
<path d="M27.719 12.5033C36.3412 12.5033 43.3531 19.5152 43.3531 28.1375C43.3531 36.7597 36.3412 43.7717 27.719 43.7717C19.0967 43.7717 12.0848 36.7597 12.0848 28.1375C12.0848 19.5152 19.0967 12.5033 27.719 12.5033ZM27.719 8.59479C16.9275 8.59479 8.17627 17.346 8.17627 28.1375C8.17627 38.929 16.9275 47.6802 27.719 47.6802C38.5104 47.6802 47.2617 38.929 47.2617 28.1375C47.2617 17.346 38.5104 8.59479 27.719 8.59479Z" fill="#1F222A"/>
</g>
<defs>
<clipPath id="clip0_459_2">
<rect width="160.25" height="66.4452" fill="white" transform="translate(0.359619 0.777405)"/>
</clipPath>
</defs>
</svg>
