<svg xmlns="http://www.w3.org/2000/svg" width="54" height="54" viewBox="0 0 54 54"><path d="M45.7995 3.23165C40.7634 1.14749 34.0868 0 27 0C19.9132 0 13.2366 1.14749 8.20046 3.23165C2.91229 5.41976 0 8.4272 0 11.6999C0.0023704 12.4332 0.147575 13.1589 0.4275 13.8366C1.00732 15.2684 2.16506 16.6125 3.86854 17.8318C3.96062 17.8967 4.06413 17.9437 4.17364 17.9703L13.4074 31.2195L13.3849 31.2421C13.0915 31.5368 12.9089 31.9238 12.8679 32.3377C12.8269 32.7515 12.93 33.1668 13.1599 33.5134L17.3495 39.7965C17.6776 40.2902 18.1228 40.6949 18.6454 40.9747C19.168 41.2544 19.7517 41.4004 20.3445 41.3997H20.5027L20.7 41.6827V43.1997H17.9426C17.5467 43.1992 17.1556 43.2861 16.7971 43.4541C16.4387 43.6221 16.1216 43.867 15.8687 44.1716L12.3652 48.3757L12.0226 48.2041C11.7211 48.0539 11.3889 47.9756 11.052 47.9753C10.5767 47.9747 10.1144 48.1301 9.73596 48.4176C9.35751 48.7051 9.08383 49.1088 8.95693 49.5668C8.83003 50.0248 8.8569 50.5118 9.03344 50.953C9.20997 51.3943 9.52641 51.7654 9.9342 52.0095L13.0369 53.8713C13.209 53.9746 13.4107 54.0174 13.6099 53.993C13.8091 53.9685 13.9944 53.8781 14.1364 53.7363L15.327 52.5457L17.5369 53.8716C17.709 53.9749 17.9107 54.0178 18.1099 53.9933C18.3091 53.9688 18.4944 53.8785 18.6364 53.7366L20.4246 51.9485L21.2773 51.1658C21.5295 51.4879 21.8517 51.7483 22.2195 51.9274C22.5872 52.1066 22.9909 52.1997 23.4 52.1996H31.5C32.4544 52.1986 33.3695 51.8189 34.0444 51.144C34.7193 50.4692 35.0989 49.5541 35.1 48.5997V41.0971C35.7309 40.8215 36.269 40.3699 36.6498 39.7964L39.4488 35.599L39.4496 35.5979L40.8396 33.5135C41.0666 33.1711 41.1699 32.7614 41.1324 32.3523C41.095 31.9432 40.9191 31.5591 40.6338 31.2635L48.6357 19.8929L47.1637 18.8569L40.9776 27.6475L42.9883 14.9126C45.4134 15.7113 47.4946 16.6959 49.0842 17.8327C49.2369 17.942 49.42 18.0007 49.6078 18.0007C49.7956 18.0007 49.9787 17.942 50.1315 17.8327C51.8349 16.6134 52.9927 15.2693 53.5718 13.839C53.8522 13.1606 53.9977 12.434 54 11.6999C54 8.4272 51.0877 5.41976 45.7995 3.23165ZM8.88863 4.89484C13.7117 2.8991 20.1438 1.79999 27 1.79999C33.8562 1.79999 40.2883 2.8991 45.1114 4.89484C49.1211 6.55398 51.6069 8.70148 52.1054 10.8886C50.4649 9.07644 47.8012 7.4938 44.241 6.2355C39.432 4.53597 33.309 3.59998 27 3.59998C20.691 3.59998 14.568 4.53597 9.75904 6.2355C6.19875 7.4938 3.53509 9.07644 1.89461 10.8886C2.3931 8.70148 4.8789 6.55409 8.88863 4.89484ZM10.3589 7.93232C12.5542 7.17444 14.8091 6.60158 17.1 6.21975V11.5942C15.8794 11.7975 14.6925 12.0373 13.553 12.3153C12.2637 12.6297 11.0433 12.9903 9.9 13.3888V8.09904C10.0513 8.04302 10.2043 7.98756 10.3589 7.93266V7.93232ZM18.9 5.94176C21.287 5.61806 23.6914 5.4395 26.1 5.40705V10.8063C23.6919 10.8383 21.2878 11.0115 18.9 11.3252V5.94176ZM27.9 5.40705C30.3086 5.4395 32.713 5.61806 35.1 5.94176V11.3252C32.7122 11.0115 30.3081 10.8383 27.9 10.8063V5.40705ZM36.9 6.21975C39.1909 6.6017 41.4459 7.17466 43.6412 7.93266C43.7961 7.98741 43.949 8.04287 44.1 8.09904V13.3888C42.9567 12.9899 41.7361 12.6297 40.447 12.3153C39.3075 12.0374 38.1206 11.7975 36.9 11.5942V6.21975ZM2.25 13.4999C3.105 11.7871 5.1363 10.1741 8.1 8.83546V14.0768C6.81654 14.6021 5.58371 15.2434 4.41686 15.9929C3.40403 15.1923 2.6775 14.3569 2.25 13.4999ZM15.4398 33.6871L14.6581 32.5145L16.0602 31.1125L16.8419 32.285L15.4398 33.6871ZM33.3 42.2997V43.1997H22.5V42.2997H33.3ZM26.8452 44.9997H29.5452C29.3586 45.5257 29.0137 45.981 28.558 46.3033C28.1024 46.6256 27.5581 46.799 27 46.7997V45.8997C27.0001 45.5931 26.9478 45.2887 26.8452 44.9997ZM17.2515 45.3237C17.3358 45.2222 17.4415 45.1405 17.5609 45.0845C17.6804 45.0285 17.8107 44.9996 17.9426 44.9997H19.6784L16.865 48.3759L16.5224 48.2046C16.0435 47.965 15.4929 47.9112 14.9767 48.0536L17.2515 45.3237ZM13.3605 51.9663L10.8597 50.4658C10.8113 50.4367 10.7702 50.3969 10.7394 50.3496C10.7087 50.3022 10.6891 50.2484 10.6822 50.1923C10.6754 50.1363 10.6813 50.0794 10.6997 50.0259C10.7181 49.9725 10.7485 49.924 10.7884 49.8841C10.8436 49.8291 10.9147 49.7928 10.9916 49.7802C11.0685 49.7676 11.1474 49.7794 11.2173 49.8139L12.1472 50.2795L12.8387 50.7408L13.7328 51.337C13.7665 51.3884 13.8027 51.4382 13.8406 51.4862L13.3605 51.9663ZM17.8605 51.9663L15.3598 50.466C15.3113 50.437 15.27 50.3973 15.2392 50.3499C15.2083 50.3026 15.1887 50.2488 15.1818 50.1927C15.1749 50.1365 15.1809 50.0796 15.1994 50.0262C15.2178 49.9727 15.2482 49.9242 15.2883 49.8843C15.3434 49.8291 15.4145 49.7926 15.4916 49.7801C15.5686 49.7675 15.6476 49.7796 15.7174 49.8145L16.6474 50.2796L18.3873 51.4395L17.8605 51.9663ZM18.4326 49.3063L21.7513 45.3238C21.8356 45.2223 21.9413 45.1406 22.0608 45.0845C22.1803 45.0285 22.3106 44.9995 22.4426 44.9997H24.3C24.5386 45 24.7674 45.0949 24.9361 45.2636C25.1048 45.4323 25.1997 45.6611 25.2 45.8997V46.7997H23.4C23.2932 46.7995 23.1865 46.8058 23.0805 46.8184C23.0709 46.8193 23.0614 46.8204 23.0519 46.8215C22.4461 46.8994 21.8847 47.181 21.4601 47.6202C21.0355 48.0593 20.7729 48.6298 20.7154 49.2379L19.7117 50.1591L18.4326 49.3063ZM31.5 50.3997H23.4C23.1621 50.3991 22.9341 50.3046 22.7655 50.1367C22.597 49.9688 22.5015 49.7411 22.5 49.5033C22.5 49.4943 22.5008 49.4853 22.501 49.4764C22.506 49.2458 22.5997 49.0259 22.7627 48.8627C22.8974 48.7265 23.0727 48.6376 23.2622 48.6095C23.2712 48.6086 23.2802 48.6074 23.2891 48.6063C23.3259 48.6017 23.3629 48.5994 23.4 48.5997H30.6C30.8387 48.5997 31.0676 48.5048 31.2364 48.3361C31.4052 48.1673 31.5 47.9384 31.5 47.6997V44.9997H33.3V48.5997C33.2994 49.0769 33.1096 49.5344 32.7722 49.8718C32.4347 50.2093 31.9772 50.3991 31.5 50.3997ZM35.1522 38.7978C34.8909 39.1921 34.4843 39.4671 34.0211 39.5628C33.9008 39.5874 33.7783 39.5999 33.6555 39.6001H31.5C31.2992 39.6001 31.1041 39.6672 30.9458 39.7908C30.7876 39.9145 30.6752 40.0875 30.6267 40.2824L30.5723 40.4997H23.4277L23.3731 40.2815C23.3244 40.0868 23.2121 39.9139 23.0539 39.7904C22.8957 39.6668 22.7007 39.5997 22.5 39.5997H20.3445C20.0483 39.5999 19.7566 39.5268 19.4955 39.3868C19.2345 39.2469 19.0121 39.0445 18.8482 38.7977L16.4586 35.2144L17.8213 33.851L19.9282 37.3626C20.0082 37.4959 20.1213 37.6062 20.2565 37.6828C20.3918 37.7594 20.5446 37.7997 20.7 37.7997H24.6226C25.2788 38.3797 26.1243 38.6997 27 38.6997C27.8757 38.6997 28.7212 38.3797 29.3773 37.7997H33.3C33.4554 37.7997 33.6082 37.7595 33.7434 37.6829C33.8787 37.6064 33.9918 37.4961 34.0717 37.3628L36.1787 33.851L37.5418 35.2142L35.1522 38.7978ZM25.2 34.1998H28.8V35.0998C28.8 35.5771 28.6104 36.035 28.2728 36.3725C27.9352 36.7101 27.4774 36.8997 27 36.8997C26.5226 36.8997 26.0648 36.7101 25.7272 36.3725C25.3896 36.035 25.2 35.5771 25.2 35.0998V34.1998ZM25.2 32.3998C25.2 31.9224 25.3896 31.4646 25.7272 31.127C26.0648 30.7894 26.5226 30.5998 27 30.5998C27.4774 30.5998 27.9352 30.7894 28.2728 31.127C28.6104 31.4646 28.8 31.9224 28.8 32.3998H25.2ZM39.3419 32.5145L38.5602 33.6871L37.1581 32.285L37.9398 31.1126L39.3419 32.5145ZM38.8525 29.5629C38.4566 29.3287 37.9859 29.2553 37.5375 29.3579C37.089 29.4605 36.697 29.7311 36.4422 30.1141L35.2512 31.9006C35.2465 31.9078 35.2425 31.9152 35.238 31.9224C35.2349 31.9274 35.2313 31.9318 35.2283 31.9368L32.7905 35.9998H30.486C30.5619 35.7058 30.6002 35.4034 30.6 35.0998V32.3998C30.6 31.445 30.2207 30.5293 29.5456 29.8542C28.8705 29.1791 27.9548 28.7998 27 28.7998C26.0452 28.7998 25.1295 29.1791 24.4544 29.8542C23.7793 30.5293 23.4 31.445 23.4 32.3998V35.0998C23.3998 35.4034 23.4381 35.7058 23.514 35.9998H21.2095L17.5578 30.1139C17.303 29.7309 16.911 29.4602 16.4625 29.3576C16.0141 29.2551 15.5434 29.3285 15.1474 29.5627L13.0074 16.0092L11.2293 16.2905L12.9964 27.4823L5.84415 17.2201C10.5306 14.3532 18.4822 12.5999 27 12.5999C32.1569 12.5999 37.1058 13.243 41.2489 14.3861L38.8525 29.5629ZM49.5831 15.9928C48.4163 15.2433 47.1835 14.602 45.9 14.0767V8.83535C48.864 10.1741 50.895 11.787 51.75 13.4999C51.3225 14.3564 50.5964 15.192 49.5831 15.9928Z"></path></svg>