<svg xmlns="http://www.w3.org/2000/svg" width="54" height="54" viewBox="0 0 50 49"><g><path d="M5.21479 0.298828C4.99018 0.494141 4.94136 0.630859 4.90229 1.13867C4.873 1.49023 4.91206 1.85156 4.98042 2.02734C5.29292 2.78906 6.52339 2.78906 6.83589 2.02734C6.90425 1.85156 6.94331 1.49023 6.91401 1.13867C6.85542 0.376953 6.57222 0.0742188 5.90815 0.0742188C5.59565 0.0742188 5.40034 0.142578 5.21479 0.298828Z"></path><path d="M0.302734 3.16016C0.0488281 3.375 0 3.48242 0 3.85352C0 4.41992 0.0976562 4.58594 0.625 4.89844C1.24023 5.25977 1.77734 5.24023 2.1582 4.86914C2.70508 4.32227 2.48047 3.52148 1.65039 3.10156C1.12305 2.82813 0.664062 2.84766 0.302734 3.16016Z"></path><path d="M10.1367 3.1016C9.62891 3.37504 9.375 3.73636 9.375 4.19535C9.375 5.07426 10.3516 5.44535 11.1816 4.88871C11.7188 4.52738 11.8066 4.39066 11.8164 3.90238C11.8164 3.04301 10.9961 2.65238 10.1367 3.1016Z"></path><path d="M5.04888 3.19926C4.27739 3.39457 3.53521 3.88285 3.01763 4.53715C2.08013 5.70903 2.09966 7.74028 3.05669 8.95121C4.69732 11.0215 7.98833 10.6602 9.16021 8.27738C9.5313 7.52543 9.58013 6.23637 9.27739 5.41606C8.98442 4.63481 8.19341 3.79496 7.42192 3.45317C6.75786 3.15043 5.68364 3.04301 5.04888 3.19926ZM6.72857 5.41606C7.61724 6.08012 7.66607 7.2227 6.83599 7.91606C5.76177 8.82426 4.04302 7.71098 4.41411 6.34379C4.5313 5.92387 4.90239 5.47465 5.32232 5.2891C5.70317 5.11332 6.39653 5.17192 6.72857 5.41606Z"></path><path d="M36.5039 3.97073C34.2578 4.70316 32.9492 7.1055 33.5449 9.40042C33.8965 10.7285 34.7559 11.7539 36.0059 12.3594L36.7676 12.7207H40.332H43.8965L44.5312 12.418C45.3027 12.0566 45.9961 11.373 46.3672 10.6309C46.6016 10.1328 46.6309 9.98636 46.6309 9.0098C46.6309 8.02347 46.6113 7.88675 46.3477 7.34964C45.9766 6.60745 45.3223 5.95316 44.5801 5.58206C44.1113 5.35745 43.8379 5.28909 43.1836 5.2598C42.7344 5.24026 42.1875 5.27933 41.9531 5.33792C41.5332 5.43558 41.5332 5.43558 41.0645 4.99612C40.8105 4.74222 40.2637 4.38089 39.8535 4.18558C39.1699 3.86331 39.0332 3.83402 38.0859 3.81448C37.2949 3.79495 36.9336 3.82425 36.5039 3.97073ZM38.916 6.02151C39.3652 6.22659 39.873 6.71487 40.1758 7.26175C40.5664 7.95511 41.1328 8.06253 41.9531 7.58401C42.6172 7.21292 43.1738 7.18362 43.7695 7.51566C44.5117 7.92581 44.8633 9.0098 44.4922 9.72269C44.3066 10.0742 43.8574 10.4844 43.5254 10.6113C43.3496 10.6797 42.1484 10.7188 40.293 10.7188H37.3437L36.8262 10.4551C35.7324 9.918 35.2051 8.6387 35.5957 7.48636C36.0449 6.15823 37.666 5.44534 38.916 6.02151Z"></path><path d="M25.048 5.74282C22.2903 6.46261 20.4476 8.78336 20.4223 11.5633C20.4095 13.0525 21.0194 14.7528 21.8074 15.4849L22.1124 15.758L21.7058 16.0062L21.2991 16.2419L21.045 15.8945C20.4349 15.0754 20.0156 14.7155 19.2149 14.3307C18.4652 13.9708 18.249 13.9213 17.2832 13.9213C16.3175 13.9213 16.1141 13.9708 15.3516 14.3307C14.3858 14.79 13.6995 15.4726 13.2674 16.4033C12.9116 17.1603 12.7591 18.4137 12.937 19.146C13.0387 19.5804 13.026 19.6796 12.8227 19.7913C12.4922 20.0023 12.416 20.3249 11.4248 25.8972C10.4843 31.184 10.4335 31.7673 10.8656 32.6112C11.5645 33.9639 12.2762 34.3487 14.6653 34.7334L16.4064 35.0065L16.3429 35.7013C16.3047 36.0737 16.2031 37.3643 16.1268 38.5557L15.9871 40.7276L14.3477 44.0411C12.3652 48.0496 12.2381 48.484 12.632 49.9485L12.7972 50.5938H11.9458H11.0816L5.76956 53.8949C2.83394 55.7068 0.343124 57.3078 0.228749 57.4443C0.0762496 57.6057 0 57.9034 0 58.251C0 58.6977 0.0762496 58.8715 0.36854 59.1693C0.775205 59.5664 1.43604 59.6534 1.94437 59.3803C2.09687 59.3059 4.40977 57.8787 7.07851 56.2157L11.9331 53.2H21.5024C28.7716 53.1876 31.1353 53.1503 31.3386 53.0386C31.4911 52.9518 33.5244 51.115 35.85 48.9556L40.0946 45.0092H45.5084C50.8078 45.0092 50.9348 45.0092 51.2652 44.7485C51.7481 44.3762 53.8704 41.6832 53.9593 41.3233C54.1755 40.529 53.5019 39.7348 52.6123 39.7348C52.015 39.7348 51.7355 39.9705 50.6425 41.3978L49.88 42.3905L47.1223 42.403H44.3646L44.1612 41.7452C44.0596 41.3978 43.0684 38.0718 41.9628 34.3735L39.9548 27.647L40.3107 27.4982C40.7681 27.312 41.645 26.3688 41.8993 25.798C42.2297 25.0409 42.166 23.7254 41.7721 22.9684C41.1748 21.8142 40.2345 21.2186 38.7857 21.0696L37.9596 20.9952L37.5403 19.5679C36.9684 17.6692 36.8794 17.483 36.4601 17.272C35.85 16.9617 35.3545 17.0362 34.8716 17.5078C34.3378 18.0291 34.3251 18.2648 34.8079 19.8533L35.1765 21.0696L34.8842 21.0324C34.6937 21.0075 33.7023 20.176 32.3172 18.8854L30.0551 16.7757L30.9447 15.9069C32.3044 14.5789 32.7746 13.462 32.7874 11.526C32.8001 7.6416 28.9113 4.72517 25.048 5.74282ZM27.666 8.33657C29.0892 8.74612 30.1186 10.1361 30.1186 11.6253C30.106 14.6038 26.5604 16.1551 24.2983 14.1695C22.7351 12.8044 22.6842 10.5953 24.1965 9.15567C25.1497 8.24971 26.357 7.96428 27.666 8.33657ZM18.0458 16.7012C18.5668 16.9617 19.0624 17.7312 19.0624 18.2648C19.0624 19.1708 18.1728 20.0643 17.2832 20.0643C16.4319 20.0643 15.5042 19.1584 15.5042 18.327C15.5042 17.7932 16.0378 16.9369 16.5208 16.6887C17.0799 16.4033 17.4866 16.4033 18.0458 16.7012ZM27.1068 17.9298C27.3737 18.0415 28.8478 19.3073 30.3855 20.747C31.9359 22.1741 33.3212 23.4152 33.4737 23.502C33.6516 23.6137 34.5284 23.6509 36.2948 23.6634C38.5442 23.6634 38.8873 23.6882 39.1161 23.8743C39.51 24.2218 39.5609 24.5693 39.2559 24.9416L39.0017 25.2767H34.3124H29.6357L28.2378 24.1101C27.4753 23.4772 26.6874 22.9187 26.4967 22.8691C26.0266 22.7574 25.353 22.9931 25.1116 23.353C24.8828 23.6882 24.8447 24.4327 25.0353 24.7803C25.0988 24.9043 25.6071 25.3884 26.141 25.8475C26.6874 26.3068 27.1449 26.7287 27.1703 26.7784C27.2466 26.9521 25.6453 28.0318 24.5905 28.5157C24.0314 28.7764 23.1164 29.099 22.5572 29.2355C21.5024 29.5086 19.9266 29.7568 19.8376 29.6699C19.7487 29.5831 21.3499 20.5359 21.5532 19.9899C21.9218 18.9723 22.9893 18.1035 24.1965 17.8181C24.9718 17.6444 26.5985 17.7064 27.1068 17.9298ZM16.6986 22.6705C17.4612 22.8071 18.1093 22.9436 18.1474 22.9808C18.1983 23.0304 16.902 30.8241 16.686 31.7052C16.5589 32.2513 16.1903 32.3506 15.0594 32.1521C14.5002 32.0651 13.9156 31.9534 13.7631 31.9162C13.1404 31.7673 13.1404 31.6183 13.9919 26.8155C14.7543 22.5092 14.8052 22.3106 15.0466 22.3603C15.1991 22.3975 15.9362 22.534 16.6986 22.6705ZM37.3369 28.28C37.6673 29.4094 41.4671 42.1176 41.518 42.2416C41.5689 42.3533 41.4163 42.403 41.0097 42.403H40.4377L40.298 41.8321C40.0438 40.8517 39.7515 40.4297 36.7396 36.7315L33.8295 33.1448L31.7834 32.1893C30.3092 31.4943 29.7374 31.1716 29.7374 31.0102C29.7374 30.8985 29.8518 30.154 29.9916 29.3721C30.1313 28.5902 30.2457 27.9326 30.2457 27.9077C30.2457 27.8953 31.8215 27.8829 33.7404 27.8829H37.2225L37.3369 28.28ZM26.9415 31.2089C26.7001 32.6484 26.7764 32.7354 29.1783 33.8895C30.2965 34.4231 31.4022 34.9443 31.6436 35.0437C31.9868 35.1802 32.7111 35.9868 34.8079 38.593C36.5236 40.7151 37.5785 42.1299 37.6673 42.4153C37.8199 42.9986 37.6927 43.4455 37.1972 43.9666C36.6761 44.5251 35.7993 44.6741 35.1511 44.339C34.9097 44.2149 33.7532 42.9118 32.3044 41.1122L29.8518 38.0966L27.7549 37.0914L25.658 36.0737L23.1037 35.6393C20.3841 35.1802 19.952 35.0188 19.4818 34.3362C19.1895 33.9268 19.0751 32.8346 19.2912 32.5243C19.342 32.4498 19.952 32.3133 20.6509 32.2389C22.786 32.0031 25.2767 31.2709 26.5604 30.5014C26.8018 30.3649 27.0178 30.2781 27.0432 30.3029C27.0687 30.3277 27.0305 30.7373 26.9415 31.2089ZM19.9901 37.7367C20.3586 37.8359 21.0703 37.9849 21.5786 38.0593L22.4937 38.2083V38.7171C22.4937 39.0025 22.4301 39.8837 22.3793 40.6779L22.2649 42.1299L20.4604 45.7662C18.3381 50.0602 18.2999 50.1347 17.7407 50.3952C16.5843 50.9289 15.3261 50.2587 15.161 49.0176C15.1101 48.6082 15.3261 48.1118 16.8385 45.0712L18.5795 41.5963L18.7066 39.7968C18.8591 37.5753 18.8845 37.3892 19.1386 37.4885C19.2404 37.5257 19.6216 37.6374 19.9901 37.7367ZM27.5516 39.9085C27.9455 40.107 28.6444 40.8765 30.4871 43.1351C32.4697 45.58 33.0289 46.1881 33.5498 46.4736L34.1852 46.8335L32.1647 48.7074L30.1441 50.5938H25.6199C23.129 50.5938 21.0957 50.569 21.0957 50.5441C21.0957 50.5318 21.9472 48.7943 22.9893 46.7093L24.8828 42.9118L24.9591 41.8197C25.0098 41.2239 25.0735 40.3056 25.1242 39.7844L25.1879 38.8288L26.1156 39.2383C26.6239 39.4741 27.2719 39.772 27.5516 39.9085Z"></path><path d="M0.830078 8.48244C0.224609 8.79494 0 9.09768 0 9.59572C0 10.4648 0.742188 10.8457 1.61133 10.416C2.1875 10.1328 2.44141 9.81057 2.44141 9.39064C2.44141 8.92189 2.26562 8.59963 1.9043 8.42385C1.48438 8.22854 1.29883 8.2383 0.830078 8.48244Z"></path><path d="M9.91209 8.41412C9.36521 8.6485 9.18943 9.5274 9.59959 9.97662C9.87303 10.2794 10.5176 10.6212 10.8203 10.6212C11.123 10.6212 11.5918 10.3673 11.7187 10.1427C11.7676 10.0353 11.8164 9.77154 11.8164 9.5567C11.8164 9.09772 11.5723 8.78522 10.9863 8.48248C10.5371 8.24811 10.3223 8.23834 9.91209 8.41412Z"></path><path d="M5.38086 11.0508C5.0293 11.2461 4.89258 11.5879 4.88281 12.2617C4.88281 12.8184 4.91211 12.916 5.16602 13.1699C5.54687 13.541 6.20117 13.5703 6.60156 13.2285C6.82617 13.0332 6.875 12.8965 6.91406 12.3887C6.94336 12.0371 6.9043 11.6758 6.83594 11.5C6.62109 10.9824 5.89844 10.7578 5.38086 11.0508Z"></path><path d="M46.172 24.6934C45.9278 24.791 44.4435 26.5586 44.1603 27.0957C43.9552 27.4668 44.0235 27.877 44.3263 28.2187C44.5704 28.4922 44.6778 28.541 45.0489 28.541C45.5665 28.541 45.7423 28.4043 46.5528 27.3398L47.0997 26.6367H48.2521C49.3458 26.6367 49.4142 26.627 49.6974 26.3828C49.9513 26.168 50.0001 26.0605 50.0001 25.6895C50.0001 24.752 49.6681 24.5859 47.7833 24.5957C47.0411 24.5957 46.3185 24.6445 46.172 24.6934Z"></path><path d="M42.168 29.5273C41.8164 29.7129 41.6992 29.9473 41.6992 30.4453C41.6992 30.7676 41.7578 30.9142 41.9824 31.1388C42.6172 31.7638 43.6523 31.334 43.6523 30.4453C43.6523 29.9375 43.5254 29.7031 43.1641 29.5176C42.8125 29.332 42.5098 29.332 42.168 29.5273Z"></path></g></svg>