<svg xmlns="http://www.w3.org/2000/svg" width="54" height="54" viewBox="0 0 54 54"><path d="M4.73897 29.1112C4.18855 29.1112 3.73211 29.5869 3.73211 30.1605C3.78581 31.5455 5.69213 31.5455 5.74583 30.1605C5.74583 29.5869 5.28939 29.1112 4.73897 29.1112ZM11.9213 22.4519C11.9213 21.8782 11.4648 21.4026 10.9144 21.4026C9.58534 21.4585 9.58534 23.4452 10.9144 23.5011C11.4648 23.5011 11.9213 23.0394 11.9213 22.4519ZM4.73897 16.3661C5.28939 16.3661 5.74583 15.8904 5.74583 15.3168C5.69213 13.9318 3.78581 13.9318 3.73211 15.3168C3.73211 15.9044 4.17513 16.3661 4.73897 16.3661ZM6.87352 25.5017C6.87352 24.9281 6.41707 24.4525 5.86666 24.4525C4.5376 24.5084 4.5376 26.495 5.86666 26.551C6.41707 26.551 6.87352 26.0753 6.87352 25.5017ZM3.00717 20.0175C2.45675 20.0175 2.0003 20.4932 2.0003 21.0668C2.054 22.4519 3.96033 22.4519 4.01403 21.0668C4.01403 20.4932 3.55758 20.0175 3.00717 20.0175ZM1.00686 25.0121C0.456445 25.0121 0 25.4877 0 26.0613C0.0536994 27.4464 1.96003 27.4464 2.01373 26.0613C2.01373 25.4877 1.55728 25.0121 1.00686 25.0121ZM1.86605 12.8125C2.41647 12.8125 2.87292 12.3369 2.87292 11.7633C2.81922 10.3782 0.91289 10.3782 0.85919 11.7633C0.85919 12.3509 1.30221 12.8125 1.86605 12.8125Z"></path><path d="M43.0266 30.4963C42.6104 28.9294 40.7175 28.4817 39.2005 28.118C38.8649 28.034 38.5293 27.9641 38.2608 27.8801C37.4419 27.6423 36.3679 27.6703 35.0388 27.9641C36.4216 24.2986 36.086 20.899 34.0185 17.8351C36.341 17.6952 42.2345 18.2128 42.7178 17.1775C42.9192 16.9397 43.0132 16.6459 42.9863 16.3381C42.785 14.4215 40.1134 13.0924 35.0523 12.3929C34.0454 12.253 31.5886 12.4768 30.0448 12.6587C30.2193 11.7353 30.1522 10.756 29.8166 9.91658C28.7023 7.13251 26.7154 7.20246 25.1044 7.5802C23.3726 7.98592 22.5537 9.27303 22.6745 11.4275C17.9759 11.2736 13.3846 13.582 8.45764 18.5906C9.90752 13.9318 13.6665 8.20976 17.9222 5.49565C25.9905 -0.254364 38.3548 1.20063 44.7853 5.57959C48.3831 7.81804 50.3163 10.2244 50.3297 10.2523C50.6116 10.6161 51.1218 10.6581 51.4574 10.3643C51.8065 10.0705 51.8467 9.53884 51.5648 9.18909C44.5302 0.585054 28.5009 -3.72396 17.0361 4.09662C10.6459 8.16779 6.71241 16.9817 6.00089 21.4726C5.90692 21.9762 6.30966 22.4659 6.79296 22.4519C7.02118 22.4519 7.23598 22.354 7.39708 22.1721C12.9415 15.7365 17.8953 12.8406 22.9028 13.1204C23.0236 13.694 23.1713 14.1976 23.3726 14.6313C22.2047 16.1143 18.6471 20.6891 17.7208 22.2001C17.0093 23.3613 16.7408 25.8515 16.7139 27.7962C16.7005 29.433 16.7542 34.2037 19.2781 34.2737C20.5266 34.2177 21.1844 33.0565 21.5603 31.4476C21.7885 32.2311 21.8825 32.8467 21.7751 33.0845C21.1307 34.3856 20.0836 35.7846 19.56 37.3515C18.9827 37.8132 17.2106 39.2262 15.1701 41.059C11.8004 44.0809 9.31683 46.725 7.7864 48.9215C6.30966 51.0341 5.58472 52.4611 6.29624 53.4124C6.57816 53.8041 6.99433 54 7.66557 54C9.20943 54 12.0958 52.9367 17.8282 50.6143C28.407 46.3193 35.2671 40.4294 40.5833 35.239C42.5702 33.2664 43.3622 31.7554 43.0266 30.4963ZM33.0788 28.4537C33.0654 28.4957 33.052 28.5237 33.0385 28.5656C32.5955 28.7195 32.2062 28.8734 31.8974 29.0133C31.5618 28.2439 31.0651 27.0687 30.7966 26.4531C30.5684 25.096 29.8568 23.795 28.6486 22.4939C29.4809 20.829 30.9577 18.5626 32.1659 18.1009C34.6227 21.1648 34.918 24.5644 33.0788 28.4537ZM27.8834 36.5681C28.3398 37.0578 28.7963 37.6174 29.0916 38.0371C28.3533 37.8972 27.1316 37.4915 25.9771 36.9738C26.9705 34.7633 28.0176 32.2871 28.0579 31.4896C28.0848 31.1119 27.9774 30.5802 27.8297 29.9927C28.5144 29.7548 29.387 29.3631 30.0179 28.7055C30.2596 29.2791 30.5147 29.8527 30.6623 30.2025C30.367 30.972 28.9976 33.4762 27.7894 35.5468C27.5746 35.8826 27.6149 36.3023 27.8834 36.5681ZM25.4401 9.21707C26.8899 8.8813 27.682 8.99322 28.313 10.5601C28.6352 11.3716 28.5681 12.4208 28.1519 13.2183C27.9102 13.666 27.4672 14.2396 26.6349 14.3935C25.8697 14.5334 25.3729 14.5054 25.1179 14.3235C25.0507 14.2816 24.997 14.2116 24.9433 14.1416C24.7151 13.8618 24.5003 13.0644 24.3527 12.141C23.9499 9.56682 24.9165 9.32899 25.4401 9.21707ZM19.2646 32.5948C17.855 31.7554 18.2175 24.2566 19.0633 23.0954C19.8956 21.7244 23.2115 17.4713 24.4735 15.8625C25.2253 16.2542 26.1382 16.1842 26.9168 16.0443C27.8968 15.8625 28.7426 15.2889 29.3198 14.4354C30.8234 14.2536 33.8843 13.9458 34.8375 14.0717C38.4219 14.5614 40.4625 15.3868 41.1337 16.1003C38.8112 16.3521 34.4481 15.9464 32.3673 16.3241C29.9508 16.59 27.9505 20.2834 27.1987 21.7804L24.0842 21.5565L25.0239 20.1295C25.279 19.7518 25.185 19.2201 24.8225 18.9683C24.4601 18.7025 23.9499 18.8004 23.7083 19.1782L20.097 24.6624C19.9896 24.8162 19.9493 24.9981 19.9627 25.18L20.1507 28.7475C20.2447 31.1818 19.56 32.4829 19.2646 32.5948ZM21.6543 27.3625L21.5469 25.3619L23.0102 23.1374L27.3195 23.4592C28.407 24.5784 29.0379 25.6697 29.2124 26.7469C29.2124 27.0547 29.0916 27.7682 27.3195 28.3838C26.9973 27.4884 26.6752 26.7049 26.5543 26.4251C26.0845 25.4318 24.6883 26.0754 25.0776 27.1107C25.3864 27.8242 25.6951 28.6356 25.9368 29.3631C25.3327 30.5243 24.4332 31.0979 23.1176 31.1119C22.7282 29.6289 21.9899 28.048 21.6543 27.3625ZM22.4597 35.1831C22.9699 34.2597 23.4129 33.798 23.3861 32.7907C24.6077 32.7208 25.6414 32.2591 26.4335 31.4616C26.2321 32.5948 23.5606 38.4288 22.7417 40.0517C22.151 41.1989 22.9565 42.7098 23.0639 43.899C22.2718 43.5493 21.3052 41.9404 20.8353 40.0377C20.4863 38.3589 21.6811 36.5261 22.4597 35.1831ZM39.4422 34.0219C34.2468 39.1143 27.5343 44.8783 17.2106 49.0614C14.2974 50.2506 9.00806 52.3911 7.65215 52.3352C9.53163 47.9842 16.2575 42.2202 19.1707 39.7859C19.4392 42.0243 21.4529 46.3753 23.7754 45.4379C25.0507 44.8643 24.648 43.3254 24.3929 42.3041C24.2721 41.8564 24.0573 41.031 24.1781 40.8211C24.1916 40.7932 24.6748 39.8138 25.2924 38.4848C26.1247 38.8625 28.4338 39.7859 29.5883 39.7579C30.1925 39.7579 30.6892 39.576 30.9443 39.0724C31.1993 38.5827 31.2127 37.8272 29.4809 35.8686C31.2262 32.8747 31.9377 31.4476 32.1928 30.6782C33.5352 30.0766 36.3679 29.0553 37.8312 29.489C38.14 29.5869 38.489 29.6569 38.8515 29.7408C39.7778 29.9507 41.3217 30.3144 41.4828 30.916C41.523 31.1399 41.5365 31.9793 39.4422 34.0219Z"></path><path d="M49.9673 21.2067C50.4909 21.2067 50.8936 20.6751 50.7459 20.1575C48.5442 11.5674 42.3688 6.90867 33.9783 4.46036C33.5487 4.33445 33.1057 4.60027 32.9849 5.04796C32.864 5.49565 33.1191 5.95733 33.5487 6.08324C42.248 8.5875 47.3629 13.3442 49.1886 20.5912C49.2826 20.9549 49.6182 21.2067 49.9673 21.2067ZM44.4228 29.489C44.8256 29.6429 45.3089 29.4191 45.4565 28.9854C46.6379 25.5298 46.3023 22.4659 44.4631 19.8777C44.1946 19.4999 43.6979 19.43 43.3354 19.6958C42.9729 19.9756 42.9058 20.4932 43.1609 20.871C44.6779 23.0115 44.933 25.4878 43.9261 28.4118C43.7784 28.8455 43.9932 29.3351 44.4228 29.489ZM50.5714 38.8205C53.0147 34.6654 53.8739 29.489 53.1087 23.4732C53.055 23.0115 52.6522 22.6897 52.2092 22.7457C51.7662 22.8016 51.4574 23.2214 51.5111 23.683C52.2361 29.3911 51.4709 34.0638 49.1886 37.9391C47.1212 41.4927 43.8053 44.2907 39.0797 46.5012C38.677 46.6971 38.489 47.1867 38.677 47.6064C38.8649 48.0401 39.3482 48.222 39.7376 48.0261C44.7719 45.6758 48.316 42.6679 50.5714 38.8205ZM53.3638 40.0517C52.9342 39.9537 52.5046 40.2475 52.4106 40.6952C51.7528 43.899 49.7256 46.0255 46.2083 47.1867C45.7787 47.3266 45.5505 47.8023 45.6848 48.236C45.819 48.6837 46.2889 48.9215 46.6916 48.7816C50.7459 47.4386 53.2027 44.8364 53.9813 41.031C54.0753 40.5833 53.8068 40.1496 53.3638 40.0517Z"></path></svg>